# xmcd
#
# Track frame offsets: 
#        150
#        22113
#        34456
#        53472
#        64254
#        83999
#        107941
#        129674
#        160029
#        201786
#        213749
#        228746
#        237868
#        247381
#        266988
#        282000
#        294131
#
# Disc length: 4057 seconds
#
# Revision: 6
# Processed by: cddbd v1.5.2PL0 Copyright (c) Steve Scherf et al.
# Submitted via: ExactAudioCopyFreeDBPlugin 1.0
#
DISCID=080fd711
DTITLE=The Wedding Present - Bizarro (2014 Expanded Edition - Disc 1)
DYEAR=2014
DGENRE=Indie
TTITLE0=Brassneck
TTITLE1=Crushed
TTITLE2=No
TTITLE3=Thanks
TTITLE4=Kennedy
TTITLE5=What Have I Said Now?
TTITLE6=Granadaland
TTITLE7=Bewitched
TTITLE8=Take Me!
TTITLE9=Be Honest
TTITLE10=Unfaithful
TTITLE11=One Day This Will All Be Yours
TTITLE12=It's Not Unusual
TTITLE13=Brassneck (Single Version)
TTITLE14=Don't Talk, Just Kiss
TTITLE15=Gone
TTITLE16=Box Elder
EXTD=
EXTT0=
EXTT1=
EXTT2=
EXTT3=
EXTT4=
EXTT5=
EXTT6=
EXTT7=
EXTT8=
EXTT9=
EXTT10=
EXTT11=
EXTT12=
EXTT13=
EXTT14=
EXTT15=
EXTT16=
PLAYORDER=
